<svg width="28" height="28" viewBox="0 0 28 28" fill="none" xmlns="http://www.w3.org/2000/svg">
<g clip-path="url(#clip0_211_2047)">
<path fill-rule="evenodd" clip-rule="evenodd" d="M6.97907 0.149963C10.8233 0.149963 13.9398 3.26637 13.9398 7.11066V0.149963H20.9005C24.7447 0.149963 27.8612 3.26637 27.8612 7.11066C27.8612 10.9549 24.7447 14.0714 20.9005 14.0714C24.7447 14.0714 27.8612 17.1878 27.8612 21.032C27.8612 22.9409 27.0928 24.6703 25.8485 25.9278L25.8224 25.954L25.7993 25.977C24.5415 27.2231 22.8109 27.9927 20.9005 27.9927C19.003 27.9927 17.2829 27.2335 16.0273 26.0023C16.011 25.9863 15.9947 25.9702 15.9785 25.954C15.9632 25.9388 15.9481 25.9235 15.933 25.9081C14.7001 24.6522 13.9398 22.9309 13.9398 21.032C13.9398 24.8763 10.8233 27.9927 6.97907 27.9927C3.13478 27.9927 0.0183716 24.8763 0.0183716 21.032V14.0714H6.97907C3.13478 14.0714 0.0183716 10.9549 0.0183716 7.11066C0.0183716 3.26637 3.13478 0.149963 6.97907 0.149963ZM12.5476 7.11066C12.5476 10.1861 10.0545 12.6792 6.97907 12.6792V1.5421C10.0545 1.5421 12.5476 4.03523 12.5476 7.11066ZM26.469 21.032C26.469 17.9566 23.9759 15.4635 20.9005 15.4635C17.825 15.4635 15.3319 17.9566 15.3319 21.032H26.469ZM1.41051 15.4635V21.032C1.41051 24.1075 3.90364 26.6006 6.97907 26.6006C10.0545 26.6006 12.5476 24.1075 12.5476 21.032V15.4635H1.41051ZM15.3319 12.6792V1.5421H20.9005C23.9759 1.5421 26.469 4.03523 26.469 7.11066C26.469 10.1861 23.9759 12.6792 20.9005 12.6792H15.3319Z" fill="#263238"/>
</g>
<defs>
<clipPath id="clip0_211_2047">
<rect width="27.8428" height="27.8428" fill="white" transform="translate(0.0183716 0.149963)"/>
</clipPath>
</defs>
</svg>
